<svg width="114" height="114" viewBox="0 0 114 114" fill="none" xmlns="http://www.w3.org/2000/svg">
<rect x="16.6593" y="45.4961" width="81.4014" height="62.8123" fill="white"/>
<path d="M66.6842 71.626C66.6842 66.476 62.51 62.3018 57.36 62.3018C52.21 62.3018 48.0357 66.476 48.0357 71.626C48.0357 75.0401 49.8741 77.9883 52.5852 79.6053V85.2745C52.5852 87.9109 54.7236 90.0492 57.36 90.0492C59.9964 90.0492 62.1347 87.9109 62.1347 85.2745V79.6053C64.8459 77.9883 66.6842 75.0401 66.6842 71.626Z" fill="#064EA4" stroke="#242E39" stroke-width="5"/>
<path fill-rule="evenodd" clip-rule="evenodd" d="M28.1711 29.9973C28.1711 14.0172 41.0198 1.16846 57 1.16846C72.9801 1.16846 85.8288 14.0172 85.8288 29.9973V41.0858H94.5692C98.809 41.0858 102.265 44.5422 102.265 48.782V105.136C102.265 109.376 98.809 112.832 94.5692 112.832H19.4307C15.191 112.832 11.7346 109.376 11.7346 105.136V48.782C11.7346 44.5422 15.191 41.0858 19.4307 41.0858H28.1711V29.9973ZM19.4307 47.0858C18.5047 47.0858 17.7346 47.8559 17.7346 48.782V105.136C17.7346 106.062 18.5047 106.832 19.4307 106.832H94.5692C95.4953 106.832 96.2654 106.062 96.2654 105.136V48.782C96.2654 47.8559 95.4953 47.0858 94.5692 47.0858H19.4307ZM79.8288 41.0858H34.1711V29.9973C34.1711 17.3309 44.3335 7.16846 57 7.16846C69.6664 7.16846 79.8288 17.3309 79.8288 29.9973V41.0858Z" fill="#242E39"/>
</svg>
